<svg width="1024" height="1024" viewBox="0 0 1024 1024" fill="none" xmlns="http://www.w3.org/2000/svg">
<rect width="1024" height="1024" fill="black"/>
<path d="M218.776 861C211.318 861 204.878 858.288 199.454 852.864C194.03 847.441 191.318 841 191.318 833.542V176.592C191.318 169.135 194.03 162.694 199.454 157.27C204.878 151.847 211.318 149.135 218.776 149.135H511.658C575.387 149.135 632.336 159.982 682.505 181.677C732.675 202.694 772.675 233.881 802.505 275.237C833.014 316.593 849.285 367.779 851.319 428.796C852.675 457.949 853.353 483.711 853.353 506.084C853.353 527.779 852.675 552.525 851.319 580.322C848.607 644.051 833.014 696.932 804.539 738.966C776.065 780.322 737.082 811.169 687.59 831.508C638.776 851.169 581.827 861 516.742 861H218.776ZM445.556 662.695H511.658C526.573 662.695 539.793 659.983 551.319 654.559C563.522 648.457 573.353 639.305 580.81 627.101C588.268 614.898 592.336 599.305 593.014 580.322C594.37 560.661 595.048 543.034 595.048 527.44C595.726 511.847 595.726 496.254 595.048 480.661C595.048 464.389 594.37 447.101 593.014 428.796C591.658 400.322 582.505 379.644 565.556 366.762C549.285 353.881 529.624 347.44 506.573 347.44H445.556V662.695Z" fill="white"/>
</svg>
